<?xml version="1.0" encoding="UTF-8" standalone="no"?>
<!DOCTYPE svg  PUBLIC '-//W3C//DTD SVG 1.1//EN'  'http://www.w3.org/Graphics/SVG/1.1/DTD/svg11.dtd'>
<svg xmlns="http://www.w3.org/2000/svg">
<defs>
<font id="AtlasTypewriterRegular-Regular" horiz-adv-x="640">
<font-face underline-position="-50" font-weight="400" descent="-200" panose-1="2 0 0 0 0 0 0 0 0 0" units-per-em="1000" unicode-range="U+0020-2265" bbox="-7 -219 1711 1052" x-height="527" underline-thickness="50" font-family="AtlasTypewriterRegular" ascent="800" cap-height="765"/>
<missing-glyph horiz-adv-x="1000"/>
<glyph glyph-name=".notdef" horiz-adv-x="1000"/>
<glyph glyph-name=".null" horiz-adv-x="0"/>
<glyph glyph-name="nonmarkingreturn" horiz-adv-x="333"/>
<glyph glyph-name="space" unicode=" "/>
<glyph glyph-name="exclam" d="M253 0v134h134v-134h-134zM270 788h100l-14 -551h-73z" unicode="!"/>
<glyph glyph-name="quotedbl" d="M142 765h138l-33 -271h-72zM341 765h138l-33 -271h-72z" unicode='&quot;'/>
<glyph glyph-name="numbersign" d="M201 99h-73l29 199h-106v71h116l22 150h-108v71h119l25 174h73l-25 -174h134l25 174h73l-25 -174h108v-71h-119l-22 -150h111v-71h-121l-29 -199h-73l29 199h-134zM396 519h-134l-22 -150h134z" unicode="#"/>
<glyph glyph-name="dollar" d="M287 -116v109q-102 8 -157.5 62.5t-69.5 156.5h88q20 -128 139 -142v272l-17 3q-185 35 -185 207q0 78 56 132.5t146 62.5v81h66v-81q97 -8 150.5 -63t58.5 -144h-87q-15 119 -122 136v-261l28 -5q194 -34 194 -201q0 -95 -56.5 -151.5t-165.5 -64.5v-109h-66zM359 70 q127 16 127 131q0 105 -122 127l-11 2v-260h6zM287 676q-58 -8 -86 -41t-28 -83q0 -105 108 -124l6 -1v249z" unicode="$"/>
<glyph glyph-name="percent" d="M463 55q74 0 74 110q0 109 -74 109q-72 0 -72 -109q0 -110 72 -110zM464 -7q-65 0 -106.5 45t-41.5 127t42 126.5t106 44.5q65 0 106.5 -44t41.5 -127q0 -82 -41.5 -127t-106.5 -45zM179 710h-2q-71 0 -71 -109t73 -110q73 0 73 110q0 109 -73 109zM31 601q0 83 42 127 t106 44t106 -44t42 -127q0 -82 -42 -127t-106 -45q-66 0 -107 44.5t-41 127.5zM503 774h77l-439 -774h-77z" unicode="%"/>
<glyph glyph-name="ampersand" d="M569 0q-35 0 -59 12.5t-52 43.5q-70 -72 -182 -72q-111 0 -172.5 58t-61.5 149q0 72 35 121t117 104q-45 63 -65.5 106.5t-20.5 95.5q0 76 50 123t130 47q83 0 131 -45.5t48 -118.5q0 -65 -39 -115.5t-119 -104.5l145 -203l6 -8q21 62 36 189h75q-10 -160 -61 -255 q27 -32 46.5 -40.5t57.5 -8.5v-78h-45zM230 354q-57 -39 -76.5 -72.5t-19.5 -81.5q0 -68 40.5 -106t103.5 -38q86 0 136 56q-14 20 -16 22l-162 224zM193 623q0 -16 3 -31t5.5 -25t12.5 -26.5t13.5 -23t19.5 -28.5t21 -30q45 34 64.5 52t34 46.5t14.5 66.5q0 44 -25 69 t-67 25q-44 0 -70 -27t-26 -68z" unicode="&amp;"/>
<glyph glyph-name="quotesingle" d="M264 765h138l-33 -271h-72z" unicode="&apos;"/>
<glyph glyph-name="parenleft" d="M402 -130q-196 191 -196 459t196 459h93q-200 -206 -200 -459q0 -138 56 -254.5t144 -204.5h-93z" unicode="("/>
<glyph glyph-name="parenright" d="M238 788q196 -191 196 -459t-196 -459h-93q200 211 200 459q0 138 -56 254.5t-144 204.5h93z" unicode=")"/>
<glyph glyph-name="asterisk" d="M319 454l-110 -179l-81 58l138 159v3l-200 53l33 96l188 -91l3 1l-21 211h101l-21 -211l3 -1l187 91l34 -96l-200 -53v-3l138 -159l-81 -58l-109 179h-2z" unicode="*"/>
<glyph glyph-name="plus" d="M360 127h-81v192h-189v77h189v191h81v-191h190v-77h-190v-192z" unicode="+"/>
<glyph glyph-name="comma" d="M216 -127l54 261h144l-119 -261h-79z" unicode=","/>
<glyph glyph-name="hyphen" d="M171 372h298v-89h-298v89z" unicode="-"/>
<glyph glyph-name="period" d="M253 134h134v-134h-134v134z" unicode="."/>
<glyph glyph-name="slash" d="M493 788h83l-454 -918h-83z" unicode="/"/>
<glyph glyph-name="zero" d="M319 60q76 0 117 77.5t41 228.5q0 309 -158 309q-156 0 -156 -309q0 -306 156 -306zM67 368q0 383 252 383q123 0 188.5 -95t65.5 -288q0 -383 -254 -383q-252 0 -252 383z" unicode="0"/>
<glyph glyph-name="one" d="M106 0v75h182v471h-182v70h67q67 0 99 32q31 34 31 96h75v-669h185v-75h-457z" unicode="1"/>
<glyph glyph-name="two" d="M94 494v11q0 112 66 179.5t173 67.5q110 0 169 -60t59 -142q0 -71 -34.5 -132.5t-125.5 -148.5l-115 -110q-22 -21 -65 -61q-13 -13 -17 -16v-2h367v-80h-487v70l254 250q72 72 102 119t30 106q0 57 -38 94.5t-98 37.5q-73 0 -113 -45.5t-40 -128.5v-9h-87z" unicode="2"/>
<glyph glyph-name="three" d="M264 337v79h64q64 0 98.5 35.5t34.5 96.5q0 59 -37.5 93.5t-98.5 34.5q-71 0 -111 -36.5t-42 -110.5h-87q2 94 63.5 158.5t176.5 64.5q104 0 165 -54t61 -138q0 -125 -132 -175v-2q67 -16 108.5 -62t41.5 -124q0 -90 -68 -151t-184 -61q-117 0 -178.5 63t-65.5 160h86 q8 -73 52 -110.5t114 -37.5q66 0 110 39.5t44 103.5q0 63 -38.5 98.5t-112.5 35.5h-64z" unicode="3"/>
<glyph glyph-name="four" d="M483 182v-182h-86v182h-342v70l314 489h114v-483h97v-76h-97zM397 257v395h-4q-6 -14 -10 -21q-11 -21 -33 -57l-206 -317h253z" unicode="4"/>
<glyph glyph-name="five" d="M158 196q19 -137 154 -137h3q69 0 116.5 45.5t47.5 132.5q0 83 -45.5 129.5t-114.5 46.5q-97 0 -141 -67h-81l22 395h406v-79h-327l-12 -235h2q53 61 148 61q99 0 167 -62.5t68 -186.5q0 -116 -69 -185t-187 -69t-176.5 60t-67.5 151h87z" unicode="5"/>
<glyph glyph-name="six" d="M327 61q63 0 108 43t45 127q0 79 -43.5 122t-109.5 43q-71 0 -113.5 -41.5t-42.5 -123.5q0 -84 45.5 -127t110.5 -43zM469 581q-25 98 -131 98q-94 0 -135.5 -78t-43.5 -228h3q26 47 75.5 73.5t112.5 26.5q91 0 157.5 -59t66.5 -175q0 -112 -67 -183t-181 -71 q-259 0 -259 343q0 212 67.5 318t207.5 106q93 0 149 -45.5t69 -125.5h-91z" unicode="6"/>
<glyph glyph-name="seven" d="M466 661h-395v80h499v-59l-322 -682h-95z" unicode="7"/>
<glyph glyph-name="eight" d="M320 56q72 0 118 35.5t46 105.5t-47 106t-117 36q-68 0 -115 -36.5t-47 -105.5q0 -70 46.5 -105.5t115.5 -35.5zM320 680q-60 0 -100.5 -34.5t-40.5 -100.5q0 -64 40.5 -99.5t100.5 -35.5q58 0 99.5 35.5t41.5 99.5q0 66 -40.5 100.5t-100.5 34.5zM86 553 q0 86 62.5 142.5t171.5 56.5q108 0 171.5 -56.5t63.5 -142.5q0 -65 -35.5 -112.5t-85.5 -62.5v-2q57 -14 99.5 -60t42.5 -123q0 -92 -67 -149.5t-189 -59.5h-8q-118 0 -182.5 58t-64.5 151q0 76 43 122t99 61v2q-49 15 -85 63t-36 112z" unicode="8"/>
<glyph glyph-name="nine" d="M168 167q28 -109 144 -109q84 0 124.5 74t40.5 236h-4q-51 -89 -177 -89q-41 0 -79.5 13t-72.5 39.5t-54.5 73t-20.5 105.5q0 105 68 173.5t175 68.5q121 0 188.5 -83.5t67.5 -253.5q0 -230 -67 -330t-198 -100q-84 0 -145 45t-76 137h86zM310 676q-61 0 -105 -41.5 t-44 -122.5q0 -75 43 -117t108 -42q69 0 112 42t43 117q0 77 -46.5 120.5t-110.5 43.5z" unicode="9"/>
<glyph glyph-name="colon" d="M253 0v134h134v-134h-134zM253 393v134h134v-134h-134z" unicode=":"/>
<glyph glyph-name="semicolon" d="M207 -127l54 261h144l-119 -261h-79zM270 393v134h134v-134h-134z" unicode=";"/>
<glyph glyph-name="less" d="M78 302v62l468 230v-87l-359 -174l359 -174v-87z" unicode="&lt;"/>
<glyph glyph-name="equal" d="M90 229v76h460v-76h-460zM90 486h460v-76h-460v76z" unicode="="/>
<glyph glyph-name="greater" d="M561 364v-62l-468 -230v87l359 174l-359 174v87z" unicode="&gt;"/>
<glyph glyph-name="question" d="M247 0v134h134v-134h-134zM455 590q0 58 -36.5 93.5t-98.5 35.5q-74 0 -114.5 -44t-40.5 -127v-9h-85v11q0 111 66 179t172 68q110 0 168 -59t58 -140q0 -49 -18 -89.5t-37.5 -61.5t-53.5 -50l-37 -32q-31 -28 -37 -40.5t-6 -48.5v-49h-82v64q0 49 11.5 69.5t60.5 62.5 l42 37q68 56 68 130z" unicode="?"/>
<glyph glyph-name="at" d="M399 139q44 0 72 33t28 82v38q0 55 -27 88.5t-66 33.5q-94 0 -94 -136q0 -139 87 -139zM348 -124q-157 0 -222 88t-65 282v66q0 128 17 189q52 181 252 181q123 0 186 -74.5t63 -194.5v-326h-74v65h-2q-31 -76 -127 -76q-66 0 -108.5 48.5t-42.5 150.5q0 97 42.5 149 t116.5 52q81 0 117 -65h6q0 208 -177 208q-154 0 -185 -146q-10 -48 -10 -139v-27v-38q0 -64 4.5 -110t18 -89.5t37 -69.5t63.5 -42t95 -16q60 0 119 17l-3 -62q-55 -21 -121 -21z" unicode="@"/>
<glyph glyph-name="A" d="M441 228h-249l-63 -228h-94l223 765h122l225 -765h-100zM313 676q0 -3 -32 -128l-68 -245h207l-68 245q-4 13 -10.5 42.5t-9.5 39.5q-4 19 -11 46h-8z" unicode="A"/>
<glyph glyph-name="B" d="M319 74q88 0 132.5 35t44.5 118q0 74 -46 106.5t-139 32.5h-128v-292h136zM324 439q148 0 148 130q0 122 -136 122h-153v-252h141zM90 0v765h251q105 0 166 -47.5t61 -138.5q0 -137 -134 -169v-2q73 -13 115.5 -64t42.5 -123q0 -121 -73 -171t-201 -50h-228z" unicode="B"/>
<glyph glyph-name="C" d="M495 536q-10 69 -47 117t-109 48q-98 0 -142 -77t-44 -244q0 -168 43.5 -244t141.5 -76q53 0 89 27.5t50.5 65t18.5 85.5h91q-9 -112 -74.5 -183t-175.5 -71q-139 0 -210 94.5t-71 301.5q0 196 74 296t210 100q100 0 169 -60t80 -180h-94z" unicode="C"/>
<glyph glyph-name="D" d="M249 81q126 0 187.5 72t61.5 236q0 155 -62 226t-181 71h-87v-605h81zM75 765h165q168 0 261.5 -87t93.5 -286q0 -202 -90.5 -297t-253.5 -95h-176v765z" unicode="D"/>
<glyph glyph-name="E" d="M105 765h459v-81h-366v-258h314v-79h-314v-266h371v-81h-464v765z" unicode="E"/>
<glyph glyph-name="F" d="M218 0h-93v765h467v-81h-374v-279h333v-79h-333v-326z" unicode="F"/>
<glyph glyph-name="G" d="M335 701q-100 0 -142.5 -80.5t-42.5 -240.5q0 -165 42.5 -243.5t137.5 -78.5q46 0 81 18.5t53 48.5t26.5 60.5t8.5 61.5v63h-182v76h267v-386h-81v92h-4q-23 -46 -68.5 -76.5t-114.5 -30.5q-129 0 -196 93.5t-67 300.5q0 198 73 297.5t210 99.5q103 0 170 -61t73 -153 h-94q-6 58 -45.5 98.5t-104.5 40.5z" unicode="G"/>
<glyph glyph-name="H" d="M168 0h-93v765h93v-340h304v340h93v-765h-93v346h-304v-346z" unicode="H"/>
<glyph glyph-name="I" d="M366 75h174v-75h-440v75h174v615h-174v75h440v-75h-174v-615z" unicode="I"/>
<glyph glyph-name="J" d="M264 -10q-77 0 -157 18v84q76 -19 156 -19q150 0 150 145v468h-260v79h353v-553q0 -106 -66 -164t-176 -58z" unicode="J"/>
<glyph glyph-name="K" d="M187 0h-92v765h92v-369l298 369h104l-262 -323l278 -442h-110l-232 369l-76 -93v-276z" unicode="K"/>
<glyph glyph-name="L" d="M125 765h93v-684h380v-81h-473v765z" unicode="L"/>
<glyph glyph-name="M" d="M75 765h131l88 -364q8 -34 18 -95q4 -30 5 -38h8q3 27 4 38q5 39 18 93l88 367l130 -1v-766l-88 1v654h-8q-1 -20 -6 -42q-3 -22 -21 -101l-79 -328h-91l-78 327q-11 39 -20 102q-4 22 -6 42h-8v-654h-85v765z" unicode="M"/>
<glyph glyph-name="N" d="M74 765h123l247 -562q14 -35 24 -63q4 -16 9 -30h6v655h83v-765h-123l-247 561q-7 16 -15.5 39t-10.5 27q-7 23 -8 28h-5v-655h-83v765z" unicode="N"/>
<glyph glyph-name="O" d="M320 59q91 0 131.5 75t40.5 246q0 173 -41.5 247t-130.5 74q-88 0 -130 -76t-42 -245q0 -168 42 -244.5t130 -76.5zM49 380q0 396 272 396q131 0 200.5 -92.5t69.5 -303.5q0 -210 -71 -303t-201 -93q-132 0 -201 92.5t-69 303.5z" unicode="O"/>
<glyph glyph-name="P" d="M315 367q85 0 130 41t45 122q0 160 -172 160h-128v-323h125zM190 292v-292h-93v765h226q118 0 190.5 -58.5t72.5 -176.5q0 -117 -74.5 -177.5t-196.5 -60.5h-125z" unicode="P"/>
<glyph glyph-name="Q" d="M320 702q-90 0 -131 -75.5t-41 -247.5q0 -170 41 -245t131 -75q39 0 66.5 11t53.5 43t39 98.5t13 167.5q0 175 -40.5 249t-131.5 74zM488 45q50 -13 82.5 -43.5t54.5 -85.5l-82 -40q-46 118 -128 118q-9 0 -40.5 -4t-53.5 -4q-133 0 -202.5 92t-69.5 302q0 396 272 396 q131 0 200.5 -92.5t69.5 -303.5q0 -250 -103 -330v-5z" unicode="Q"/>
<glyph glyph-name="R" d="M325 324h-141v-324h-93v765h245q87 0 148 -34q96 -52 96 -180q0 -92 -48 -143t-113 -69v-2l169 -337h-105zM329 401q71 0 112.5 36.5t41.5 112.5q0 69 -40.5 104t-109.5 35h-149v-288h145z" unicode="R"/>
<glyph glyph-name="S" d="M483 560q-7 61 -47 100.5t-115 39.5q-76 0 -115.5 -37t-39.5 -92q0 -57 28 -85t87 -41l117 -26q102 -23 147 -73t45 -137q0 -105 -68.5 -165t-197.5 -60q-124 0 -195 63.5t-77 167.5h94q9 -69 52.5 -112.5t127.5 -43.5q89 0 129 39t40 101q0 108 -125 135l-107 23 q-100 22 -144.5 70t-44.5 138q0 93 68.5 152t179.5 59q119 0 182.5 -58.5t72.5 -157.5h-94z" unicode="S"/>
<glyph glyph-name="T" d="M611 686h-245v-686h-93v686h-245v79h583v-79z" unicode="T"/>
<glyph glyph-name="U" d="M69 765h93v-509q0 -195 159 -195q158 0 158 195v509h91v-510q0 -138 -66.5 -204t-183.5 -66q-251 0 -251 270v510z" unicode="U"/>
<glyph glyph-name="V" d="M385 0h-128l-218 765h99l151 -555q4 -13 10.5 -40.5t9.5 -39.5q1 -7 4.5 -22t5.5 -22h8q8 30 11 45q3 11 9.5 39t10.5 40l150 555h93z" unicode="V"/>
<glyph glyph-name="W" d="M91 0l-49 765h87l38 -668h8q2 20 6 44q8 57 19 105l78 359h86l78 -359q13 -66 19 -105q4 -24 6 -44h9l38 668h84l-49 -765h-129l-75 345q-10 45 -17 95q-2 14 -7 48h-7q-5 -34 -7 -48q-8 -54 -17 -95l-75 -345h-124z" unicode="W"/>
<glyph glyph-name="X" d="M266 396l-218 369h106l163 -292h4l171 292h96l-219 -364l240 -401h-108l-184 323h-3l-187 -323h-96z" unicode="X"/>
<glyph glyph-name="Y" d="M274 326l-237 439h103l183 -353h2l184 353h94l-237 -436v-329h-92v326z" unicode="Y"/>
<glyph glyph-name="Z" d="M78 765h501v-71l-405 -614h413v-80h-524v71l406 614h-391v80z" unicode="Z"/>
<glyph glyph-name="bracketleft" d="M203 788h278v-70h-193v-778h193v-70h-278v918z" unicode="["/>
<glyph glyph-name="backslash" d="M64 788h83l454 -918h-83z" unicode="\"/>
<glyph glyph-name="bracketright" d="M437 -130h-278v70h193v778h-193v70h278v-918z" unicode="]"/>
<glyph glyph-name="asciicircum" d="M543 427h-94l-126 240h-7l-133 -241h-86l188 339h74z" unicode="^"/>
<glyph glyph-name="underscore" d="M100 -114h440v-74h-440v74z" unicode="_"/>
<glyph glyph-name="grave" d="M325 609l-118 179h135l60 -179h-77z" unicode="`"/>
<glyph glyph-name="a" d="M427 95q-48 -104 -169 -104q-80 0 -125.5 41t-45.5 112q0 91 79 130q73 38 260 44v27q0 66 -28.5 95.5t-86.5 29.5t-84.5 -27t-29.5 -63h-87q4 70 56 115t145 45q95 0 148 -47t53 -146v-234q0 -24 8.5 -32t32.5 -8h18v-73h-28q-58 0 -82.5 22t-27.5 73h-6zM177 149 q0 -41 25.5 -63t71.5 -22q60 0 106 42.5t46 132.5v12q-176 -8 -220 -39q-29 -23 -29 -63z" unicode="a"/>
<glyph glyph-name="b" d="M342 58q149 0 149 213q0 197 -150 197q-72 0 -116 -49t-44 -119v-56q0 -82 42 -134t119 -52zM94 788h90v-348h1q24 45 70 72.5t107 27.5q97 0 158.5 -64.5t61.5 -204.5q0 -138 -64 -211t-163 -73q-62 0 -106 27.5t-68 69.5h-2v-84h-85v788z" unicode="b"/>
<glyph glyph-name="c" d="M464 368q-7 40 -41.5 70.5t-90.5 30.5q-75 0 -111.5 -53.5t-36.5 -149.5q0 -101 34 -154t114 -53q62 0 95.5 35t41.5 78h91q-12 -86 -74.5 -135.5t-153.5 -49.5q-119 0 -180 71t-62 204q0 128 65 203t182 75q87 0 146.5 -42t73.5 -130h-93z" unicode="c"/>
<glyph glyph-name="d" d="M546 0h-86v84h-4q-21 -42 -67.5 -69.5t-106.5 -27.5q-97 0 -161 65.5t-64 207.5q0 132 65.5 206t170.5 74q55 0 96.5 -23.5t63.5 -59.5h2v331h91v-788zM458 284q0 84 -41 134t-110 50q-79 0 -118.5 -54t-39.5 -150q0 -206 149 -206q73 0 116.5 48t43.5 122v56z" unicode="d"/>
<glyph glyph-name="e" d="M548 138q-15 -70 -72.5 -110.5t-144.5 -40.5q-121 0 -184.5 75.5t-63.5 198.5q0 121 65 200t180 79t172 -73t57 -182v-46h-383q4 -85 43.5 -133.5t116.5 -48.5q102 0 128 81h86zM465 317q-5 154 -138 154q-66 0 -104 -42.5t-47 -117.5h289v6z" unicode="e"/>
<glyph glyph-name="f" d="M352 0h-89v452h-191v75h191v107q0 80 50.5 118.5t132.5 38.5q57 0 112 -16v-76q-55 17 -109 17q-49 0 -73 -21t-24 -69v-99h206v-75h-206v-452z" unicode="f"/>
<glyph glyph-name="g" d="M301 -199q-55 0 -100.5 13t-81.5 47t-42 86h87q18 -74 139 -74q82 0 120.5 34.5t38.5 118.5v78h-1q-23 -42 -70.5 -71t-106.5 -29q-94 0 -157 65t-63 202q0 128 63.5 198.5t168.5 70.5q119 0 166 -96h3v83h86v-514q0 -107 -67 -159.5t-183 -52.5zM464 292q0 79 -43.5 128 t-115.5 49q-75 0 -112 -52.5t-37 -145.5q0 -95 34 -145.5t119 -50.5q67 0 111 47.5t44 116.5v53z" unicode="g"/>
<glyph glyph-name="h" d="M444 0v326v11q0 69 -18 93q-27 35 -83 35q-71 0 -106.5 -40.5t-35.5 -108.5v-316h-91v788h91v-348h1q20 42 62.5 71t102.5 29q168 0 168 -173v-367h-91z" unicode="h"/>
<glyph glyph-name="i" d="M92 0v75h194v380h-165v72h251v-452h197v-75h-477zM255 760h134v-134h-134v134z" unicode="i"/>
<glyph glyph-name="j" d="M250 -199q-50 0 -112 14v78q62 -15 103 -15q105 0 105 105v470h-208v74h294v-554q0 -82 -50.5 -127t-131.5 -45zM315 626v134h134v-134h-134z" unicode="j"/>
<glyph glyph-name="k" d="M212 0h-86v788h86v-524l238 263h106l-191 -205l219 -322h-107l-173 259l-92 -99v-160z" unicode="k"/>
<glyph glyph-name="l" d="M92 0v75h192v641h-173v72h262v-713h196v-75h-477z" unicode="l"/>
<glyph glyph-name="m" d="M59 527h77v-76h4q26 89 112 89q87 0 106 -87h3q27 87 114 87q59 0 85 -34t26 -107v-399h-87v380q0 29 -2 44t-14.5 29t-37.5 14q-79 0 -79 -146v-321h-87v380q0 20 -1.5 32.5t-6.5 26.5t-16.5 21t-30.5 7q-41 0 -59.5 -36t-18.5 -110v-321h-87v527z" unicode="m"/>
<glyph glyph-name="n" d="M444 325v11q0 70 -18 94q-27 35 -83 35q-71 0 -106.5 -40.5t-35.5 -108.5v-316h-91v527h85v-89h2q19 43 65 72.5t105 29.5q168 0 168 -173v-367h-91v325z" unicode="n"/>
<glyph glyph-name="o" d="M320 470q-153 0 -153 -206q0 -207 153 -207t153 207q0 206 -153 206zM320 -13q-120 0 -183 72.5t-63 204.5t63.5 204t182.5 72q120 0 183 -72t63 -204q0 -133 -63.5 -205t-182.5 -72z" unicode="o"/>
<glyph glyph-name="p" d="M94 527h87v-88h2q60 101 177 101q97 0 159.5 -64.5t62.5 -204.5q0 -138 -64.5 -211t-163.5 -73q-58 0 -104.5 26.5t-63.5 63.5h-2v-265h-90v715zM181 244q0 -82 42 -134t119 -52q149 0 149 213q0 197 -150 197q-72 0 -116 -49.5t-44 -118.5v-56z" unicode="p"/>
<glyph glyph-name="q" d="M298 58q73 0 116.5 48t43.5 122v56q0 83 -42.5 133.5t-110.5 50.5q-77 0 -116.5 -54t-39.5 -150q0 -206 149 -206zM546 -188h-91v268h-3q-22 -39 -66 -66t-104 -27q-97 0 -161 65.5t-64 207.5q0 132 65.5 206t172.5 74q59 0 101 -26.5t59 -66.5h2v80h89v-715z" unicode="q"/>
<glyph glyph-name="r" d="M442 453q-95 0 -144.5 -60t-49.5 -167v-226h-90v527h85v-131h2q28 75 81.5 108t135.5 33q61 0 105 -21v-85q-72 22 -125 22z" unicode="r"/>
<glyph glyph-name="s" d="M440 395q-12 75 -120 75q-53 0 -82 -21t-29 -58q0 -34 21.5 -51.5t68.5 -26.5l77 -13q86 -15 124 -50t38 -98q0 -78 -54.5 -121.5t-166.5 -43.5q-198 0 -216 162h87q13 -92 129 -92q133 0 133 86q0 36 -22 52.5t-80 26.5l-87 15q-138 22 -138 148q0 68 51.5 111.5 t146.5 43.5q98 0 149 -38.5t57 -106.5h-87z" unicode="s"/>
<glyph glyph-name="t" d="M248 452h-191v75h142q31 0 43 12t12 43v107h83v-162h206v-75h-206v-298q0 -89 94 -89q52 0 112 21v-75q-61 -23 -118 -23q-177 0 -177 159v305z" unicode="t"/>
<glyph glyph-name="u" d="M197 203q0 -82 19 -107q26 -35 81 -35q144 0 144 181v285h90v-527h-86v90h-2q-19 -44 -63 -73.5t-103 -29.5q-169 0 -169 173v367h89v-324z" unicode="u"/>
<glyph glyph-name="v" d="M71 527h91l130 -349q16 -46 20 -58q1 -3 3.5 -11.5t4.5 -13.5h6q2 5 4.5 13.5t3.5 11.5q4 12 20 58l130 349h85l-201 -527h-96z" unicode="v"/>
<glyph glyph-name="w" d="M38 527h83l57 -351q4 -23 6 -59q0 -5 1 -16.5t1 -17.5h6q1 6 2.5 18t1.5 17q1 8 3.5 28.5t4.5 28.5l74 352h87l72 -352q2 -8 4.5 -28.5t3.5 -28.5q0 -5 1.5 -17t2.5 -18h6q2 24 3 35q1 9 2.5 29t3.5 28l55 352h83l-97 -527h-102l-62 295q-6 22 -13 80q-4 28 -5 41h-6 q-1 -13 -5 -41q-4 -30 -13 -80l-62 -295h-102z" unicode="w"/>
<glyph glyph-name="x" d="M268 272l-185 255h103l133 -188h4l134 188h94l-184 -251l202 -276h-104l-150 209h-3l-149 -209h-95z" unicode="x"/>
<glyph glyph-name="y" d="M74 527h96l132 -340q14 -37 21 -60q3 -8 7 -22h4q4 14 7 23q13 39 22 61l124 338h91l-217 -560q-36 -93 -78.5 -129.5t-115.5 -36.5q-46 0 -83 11v75q42 -10 78 -10q45 0 67 19t44 76l11 28z" unicode="y"/>
<glyph glyph-name="z" d="M107 527h430v-78l-345 -375h353v-74h-454v79l342 375h-326v73z" unicode="z"/>
<glyph glyph-name="braceleft" d="M122 289v80h50q45 0 60.5 16.5t15.5 59.5v165q0 99 51.5 138.5t174.5 39.5h22v-70q-94 0 -128.5 -20.5t-34.5 -81.5v-166q0 -23 -3 -40t-11 -35t-26 -29.5t-46 -15.5v-4q28 -4 46 -15.5t26 -29.5t11 -35t3 -40v-166q0 -61 34 -80.5t129 -19.5v-70h-22q-124 0 -175 38 t-51 137v168q0 43 -15.5 59.5t-60.5 16.5h-50z" unicode="{"/>
<glyph glyph-name="bar" d="M282 788h75v-918h-75v918z" unicode="|"/>
<glyph glyph-name="braceright" d="M518 369v-80h-50q-45 0 -60.5 -16.5t-15.5 -59.5v-165q0 -99 -51.5 -138.5t-174.5 -39.5h-22v70q94 0 128.5 20.5t34.5 81.5v166q0 23 3 40t11 35t26 29.5t46 15.5v4q-28 4 -46 15.5t-26 29.5t-11 35t-3 40v166q0 61 -34 80.5t-129 19.5v70h22q124 0 175 -38.5t51 -136.5 v-168q0 -43 15.5 -59.5t60.5 -16.5h50z" unicode="}"/>
<glyph glyph-name="asciitilde" d="M103 292q0 62 34.5 98.5t89.5 36.5q36 0 106 -30t84 -30q19 0 32 15.5t15 46.5h71q0 -63 -34.5 -99t-88.5 -36q-37 0 -106 29.5t-85 29.5q-18 0 -31.5 -15t-15.5 -46h-71z" unicode="~"/>
<glyph glyph-name="uni00A0" unicode=" "/>
<glyph glyph-name="exclamdown" d="M397 600v-134h-134v134h134zM380 -188h-100l14 551h73z" unicode="¡"/>
<glyph glyph-name="cent" d="M301 469q-54 -14 -83 -68t-29 -136q0 -182 112 -206v410zM547 172q-9 -82 -57.5 -127.5t-126.5 -54.5v-106h-62v106q-98 11 -150 82t-52 189q0 113 54 189t148 88v97h62v-96q76 -7 125.5 -49t55.5 -122h-88q-4 38 -27.5 66.5t-65.5 36.5v-413q35 6 58.5 28t31.5 43t10 43 h84z" unicode="¢"/>
<glyph glyph-name="sterling" d="M573 0h-492v69l35 29q38 34 54.5 61.5t16.5 63.5q0 38 -16 93h-101v71h80l-11 35q-17 57 -17 108q0 106 67.5 164t159.5 58q104 0 164.5 -58t60.5 -165h-92q0 63 -30 105.5t-99 42.5q-61 0 -99 -34t-38 -107q0 -45 16 -105l12 -44h222v-71h-203q11 -49 11 -84 q0 -76 -61 -136l-15 -14v-2h375v-80z" unicode="£"/>
<glyph glyph-name="currency" d="M415 194q-28 -16 -56 -22v-109h-80v109q-34 6 -58 22l-81 -82l-55 55l82 81q-18 31 -23 59h-106v80h106q6 31 21 56l-79 79l57 57l78 -79q30 17 58 23v107h80v-107q31 -7 59 -25l82 84l55 -55l-84 -83q16 -27 22 -57h108v-80h-108q-6 -34 -22 -57l81 -80l-57 -57z M208 347q0 -51 31 -85t79 -34q50 0 80.5 33.5t30.5 85.5t-30.5 86t-80.5 34q-48 0 -79 -34t-31 -86z" unicode="¤"/>
<glyph glyph-name="yen" d="M278 160h-192v69h192v93h-194v69h180l-208 350h102l161 -290h2l169 290h93l-210 -350h178v-69h-189v-93h191v-69h-191v-160h-84v160z" unicode="¥"/>
<glyph glyph-name="brokenbar" d="M282 -130v438h75v-438h-75zM357 387h-75v401h75v-401z" unicode="¦"/>
<glyph glyph-name="section" d="M76 352q0 58 28 89.5t77 49.5v2q-36 36 -36 102q0 70 53 113.5t139 43.5q89 0 137.5 -43.5t53.5 -119.5h-86q-9 94 -107 94q-51 0 -77 -23.5t-26 -59.5q0 -37 17 -56.5t53 -33.5l137 -58q79 -34 107 -71.5t28 -91.5q0 -105 -104 -143v-3q38 -41 38 -97q0 -76 -51 -118 t-151 -42q-98 0 -150 47.5t-56 131.5h87q7 -54 35.5 -81t86.5 -27q110 0 110 81q0 34 -17 52.5t-60 36.5l-126 53q-73 32 -106.5 70t-33.5 102zM164 365q0 -36 14.5 -57.5t52.5 -38.5l136 -58q26 -11 45 -23q39 9 57 29t18 58q0 33 -17 55.5t-58 39.5l-125 52q-9 4 -47 24 q-35 -5 -55.5 -27.5t-20.5 -53.5z" unicode="§"/>
<glyph glyph-name="dieresis" d="M362 626v129h129v-129h-129zM146 755h130v-129h-130v129z" unicode="¨"/>
<glyph glyph-name="copyright" d="M446 311q-10 -144 -121 -144q-71 0 -102 47t-31 165q0 117 32.5 166.5t102.5 49.5q114 0 118 -134h-69q-1 38 -11.5 56t-40.5 18q-32 0 -46.5 -36t-14.5 -117q0 -84 13 -119t50 -35q49 0 49 83h71zM115 344q0 -64 8.5 -114t29.5 -95.5t63 -70.5t104 -25t104.5 25 t63.5 70.5t29 95t8 114.5v74q0 304 -205 304t-205 -304v-74zM50 422q0 164 65 259.5t205 95.5t205 -96t65 -259v-82q0 -166 -65 -261t-205 -95q-270 0 -270 356v82z" unicode="©"/>
<glyph glyph-name="ordfeminine" d="M407 375q-47 -74 -144 -74q-70 0 -106.5 33.5t-36.5 94.5q0 78 68 111q22 11 58 17t66.5 8t93.5 5v15q0 103 -95 103q-85 0 -94 -70h-78q5 60 51.5 96.5t123.5 36.5q85 0 127.5 -39.5t42.5 -125.5v-174q0 -21 7 -28.5t25 -7.5h18v-67h-29q-45 0 -65.5 13t-26.5 53h-6z M278 366q49 0 88.5 34t39.5 103v9q-61 -3 -86 -4.5t-52 -6.5t-40 -14q-24 -17 -24 -53q0 -68 74 -68z" unicode="ª"/>
<glyph glyph-name="guillemotleft" d="M310 464l-104 -206l109 -201h-92l-114 204l113 203h88zM512 464l-104 -206l108 -201h-91l-114 204l113 203h88z" unicode="«"/>
<glyph glyph-name="logicalnot" d="M469 127v191h-379v79h460v-270h-81z" unicode="¬"/>
<glyph glyph-name="registered" d="M281 409h-52v255h105q37 0 62 -18.5t25 -55.5q0 -60 -54 -71l57 -110h-59l-52 102h-32v-102zM323 552q44 0 44 38q0 35 -43 35h-43v-73h42zM319 324q85 0 141.5 58t56.5 145q0 88 -56.5 146.5t-141.5 58.5q-84 0 -139 -58t-55 -147q0 -87 55 -145t139 -58zM74 527 q0 105 70 177t175 72q107 0 177 -71.5t70 -177.5q0 -105 -70 -176t-177 -71q-105 0 -175 71t-70 176z" unicode="®"/>
<glyph glyph-name="macron" d="M160 719h318v-83h-318v83z" unicode="¯"/>
<glyph glyph-name="degree" d="M319 413q57 0 92.5 38.5t35.5 99.5q0 60 -35.5 99.5t-92.5 39.5q-56 0 -92 -39.5t-36 -99.5t35.5 -99t92.5 -39zM113 551q0 88 58.5 147.5t147.5 59.5t148 -59.5t59 -147.5q0 -89 -58.5 -148t-148.5 -59q-89 0 -147.5 59t-58.5 148z" unicode="°"/>
<glyph glyph-name="plusminus" d="M90 77h460v-77h-460v77zM360 157h-81v192h-189v77h189v191h81v-191h190v-77h-190v-192z" unicode="±"/>
<glyph glyph-name="twosuperior" d="M133 678q1 87 50.5 136t132.5 49q79 0 127.5 -40.5t48.5 -109.5q0 -53 -25.5 -93.5t-90.5 -98.5l-66 -59q-11 -9 -28.5 -22.5t-22.5 -18.5q-7 -6 -21 -16v-3h263v-70h-375v55l190 171q54 47 75 79t21 74q0 40 -26.5 64.5t-69.5 24.5q-103 0 -107 -122h-76z" unicode="²"/>
<glyph glyph-name="threesuperior" d="M274 565v65h46q42 0 67.5 24t25.5 62t-25.5 59.5t-68.5 21.5q-98 0 -101 -93h-80q0 67 47 113t136 46q80 0 126.5 -39t46.5 -99q0 -88 -94 -121v-2q107 -24 107 -128q0 -65 -50.5 -109t-139.5 -44q-91 0 -137.5 45.5t-50.5 114.5h80q6 -47 36 -71t77 -24q46 0 76 25 t30 66q0 42 -27.5 65t-78.5 23h-48z" unicode="³"/>
<glyph glyph-name="acute" d="M305 788h135l-118 -179h-77z" unicode="´"/>
<glyph glyph-name="paragraph" d="M283 401q-90 2 -144 49t-54 134q0 91 55.5 136t147.5 45h74v-765h-79v401zM522 765v-765h-79v765h79z" unicode="¶"/>
<glyph glyph-name="periodcentered" d="M253 381h134v-134h-134v134z" unicode="·"/>
<glyph glyph-name="cedilla" d="M325 -217q-90 0 -103 71h77q8 -17 31 -17q36 0 36 35t-35 35q-18 0 -31 -15h-71l70 154h52l-40 -87h32q93 0 93 -84q0 -40 -29.5 -66t-81.5 -26z" unicode="¸"/>
<glyph glyph-name="onesuperior" d="M166 332v64h131v306h-128v61h34q55 0 78 21q26 22 26 73h67v-461h125v-64h-333z" unicode="¹"/>
<glyph glyph-name="ordmasculine" d="M321 365q115 0 115 161t-117 161q-57 0 -86 -42.5t-29 -118.5q0 -161 117 -161zM319 300q-96 0 -148.5 61t-52.5 165q0 101 54.5 163t147.5 62q97 0 149.5 -60.5t52.5 -164.5q0 -103 -55 -164.5t-148 -61.5z" unicode="º"/>
<glyph glyph-name="guillemotright" d="M330 57l104 206l-107 201h90l114 -203l-113 -204h-88zM128 57l105 206l-108 201h91l113 -203l-112 -204h-89z" unicode="»"/>
<glyph glyph-name="onequarter" horiz-adv-x="1920" unicode="¼" d="M166 257v64h131v306h-128v61h34q55 0 78 21q26 22 26 73h67v-461h125v-64h-333zM1627 84v-124h-75v124h-257v59l237 340h95v-334h84v-65h-84zM1555 148v257l-6 1l-8 -16q-7 -15 -24 -39l-143 -203h181zM1233 780h82l-568 -820h-82z"/>
<glyph glyph-name="onehalf" horiz-adv-x="1920" unicode="½" d="M166 257v64h131v306h-128v61h34q55 0 78 21q26 22 26 73h67v-461h125v-64h-333zM1313 306q1 87 50.5 136t132.5 49q79 0 127.5 -40.5t48.5 -109.5q0 -53 -25.5 -93.5t-90.5 -98.5l-66 -59q-11 -9 -28.5 -22.5t-22.5 -18.5q-7 -6 -21 -16v-3h263v-70h-375v55l190 171 q54 47 75 79t21 74q0 40 -26.5 64.5t-69.5 24.5q-103 0 -107 -122h-76zM1203 780h82l-568 -820h-82z"/>
<glyph glyph-name="threequarters" horiz-adv-x="1920" unicode="¾" d="M274 490v65h46q42 0 67.5 24t25.5 62t-25.5 59.5t-68.5 21.5q-98 0 -101 -93h-80q0 67 47 113t136 46q80 0 126.5 -39t46.5 -99q0 -88 -94 -121v-2q107 -24 107 -128q0 -65 -50.5 -109t-139.5 -44q-91 0 -137.5 45.5t-50.5 114.5h80q6 -47 36 -71t77 -24q46 0 76 25 t30 66q0 42 -27.5 65t-78.5 23h-48zM1627 84v-124h-75v124h-257v59l237 340h95v-334h84v-65h-84zM1555 148v257l-6 1l-8 -16q-7 -15 -24 -39l-143 -203h181zM1223 780h82l-568 -820h-82z"/>
<glyph glyph-name="questiondown" d="M387 600v-134h-134v134h134zM179 10q0 -58 36.5 -93.5t98.5 -35.5q74 0 114.5 44t40.5 127v9h85v-11q0 -111 -66 -179t-172 -68q-110 0 -168 59t-58 140q0 49 18 89.5t37.5 61.5t53.5 50l37 32q31 28 37 40.5t6 48.5v49h82v-64q0 -49 -11.5 -69.5t-60.5 -62.5l-42 -37 q-68 -56 -68 -130z" unicode="¿"/>
<glyph glyph-name="Agrave" d="M361 827h-81l-105 133h135zM441 228h-249l-63 -228h-94l223 765h122l225 -765h-100zM313 676q0 -3 -32 -128l-68 -245h207l-68 245q-4 13 -10.5 42.5t-9.5 39.5q-4 19 -11 46h-8z" unicode="À"/>
<glyph glyph-name="Aacute" d="M335 960h135l-105 -133h-81zM441 228h-249l-63 -228h-94l223 765h122l225 -765h-100zM313 676q0 -3 -32 -128l-68 -245h207l-68 245q-4 13 -10.5 42.5t-9.5 39.5q-4 19 -11 46h-8z" unicode="Á"/>
<glyph glyph-name="Acircumflex" d="M474 827h-87l-67 66h-3l-67 -66h-84l97 133h114zM441 228h-249l-63 -228h-94l223 765h122l225 -765h-100zM313 676q0 -3 -32 -128l-68 -245h207l-68 245q-4 13 -10.5 42.5t-9.5 39.5q-4 19 -11 46h-8z" unicode="Â"/>
<glyph glyph-name="Atilde" d="M138 827q2 62 31.5 98.5t79.5 36.5q35 0 80 -26.5t62 -26.5q20 0 29 13.5t12 43.5h73q-2 -61 -31.5 -98t-80.5 -37q-35 0 -80 26.5t-59 26.5q-36 0 -42 -57h-74zM441 228h-249l-63 -228h-94l223 765h122l225 -765h-100zM313 676q0 -3 -32 -128l-68 -245h207l-68 245 q-4 13 -10.5 42.5t-9.5 39.5q-4 19 -11 46h-8z" unicode="Ã"/>
<glyph glyph-name="Adieresis" d="M146 956h130v-129h-130v129zM362 956h129v-129h-129v129zM441 228h-249l-63 -228h-94l223 765h122l225 -765h-100zM313 676q0 -3 -32 -128l-68 -245h207l-68 245q-4 13 -10.5 42.5t-9.5 39.5q-4 19 -11 46h-8z" unicode="Ä"/>
<glyph glyph-name="Aring" d="M316 998q-30 0 -48.5 -21.5t-18.5 -52.5q0 -32 18.5 -52.5t48.5 -20.5q31 0 49.5 20.5t18.5 52.5q0 31 -19 52.5t-49 21.5zM316 797q-57 0 -93 36t-36 91t36.5 91.5t92.5 36.5q57 0 93.5 -36.5t36.5 -91.5t-36.5 -91t-93.5 -36zM441 228h-249l-63 -228h-94l223 765h122 l225 -765h-100zM313 676q0 -3 -32 -128l-68 -245h207l-68 245q-4 13 -10.5 42.5t-9.5 39.5q-4 19 -11 46h-8z" unicode="Å"/>
<glyph glyph-name="AE" d="M81 0h-88l248 765h387v-81h-222v-258h190v-79h-190v-266h227v-81h-314v228h-165zM319 684h-20l-121 -381h141v381z" unicode="Æ"/>
<glyph glyph-name="Ccedilla" d="M327 -219q-90 0 -103 71h77q8 -17 31 -17q36 0 36 35t-35 35q-18 0 -31 -15h-71l45 99q-220 37 -220 391q0 196 74 296t210 100q100 0 169 -60t80 -180h-94q-10 69 -47 117t-109 48q-98 0 -142 -77t-44 -244q0 -168 43.5 -244t141.5 -76q53 0 89 27.5t50.5 65t18.5 85.5 h91q-9 -112 -74.5 -183t-175.5 -71h-12l-12 -27h32q93 0 93 -84q0 -40 -29.5 -66t-81.5 -26z" unicode="Ç"/>
<glyph glyph-name="Egrave" d="M390 827h-81l-105 133h135zM105 765h459v-81h-366v-258h314v-79h-314v-266h371v-81h-464v765z" unicode="È"/>
<glyph glyph-name="Eacute" d="M346 960h135l-105 -133h-81zM105 765h459v-81h-366v-258h314v-79h-314v-266h371v-81h-464v765z" unicode="É"/>
<glyph glyph-name="Ecircumflex" d="M495 827h-87l-67 66h-3l-67 -66h-84l97 133h114zM105 765h459v-81h-366v-258h314v-79h-314v-266h371v-81h-464v765z" unicode="Ê"/>
<glyph glyph-name="Edieresis" d="M169 956h130v-129h-130v129zM385 956h129v-129h-129v129zM105 765h459v-81h-366v-258h314v-79h-314v-266h371v-81h-464v765z" unicode="Ë"/>
<glyph glyph-name="Igrave" d="M361 827h-81l-105 133h135zM366 75h174v-75h-440v75h174v615h-174v75h440v-75h-174v-615z" unicode="Ì"/>
<glyph glyph-name="Iacute" d="M335 960h135l-105 -133h-81zM366 75h174v-75h-440v75h174v615h-174v75h440v-75h-174v-615z" unicode="Í"/>
<glyph glyph-name="Icircumflex" d="M474 827h-87l-67 66h-3l-67 -66h-84l97 133h114zM366 75h174v-75h-440v75h174v615h-174v75h440v-75h-174v-615z" unicode="Î"/>
<glyph glyph-name="Idieresis" d="M148 956h130v-129h-130v129zM364 956h129v-129h-129v129zM366 75h174v-75h-440v75h174v615h-174v75h440v-75h-174v-615z" unicode="Ï"/>
<glyph glyph-name="Eth" d="M239 81q126 0 187.5 72t61.5 236q0 155 -62 226t-181 71h-75v-261h184v-77h-184v-267h69zM77 0v348h-73v77h73v340h153q168 0 261.5 -87t93.5 -286q0 -202 -90.5 -297t-253.5 -95h-164z" unicode="Ð"/>
<glyph glyph-name="Ntilde" d="M157 827q2 62 31.5 98.5t79.5 36.5q35 0 80 -26.5t62 -26.5q20 0 29 13.5t12 43.5h73q-2 -61 -31.5 -98t-80.5 -37q-34 0 -80 26.5t-59 26.5q-36 0 -42 -57h-74zM74 765h123l247 -562q14 -35 24 -63q4 -16 9 -30h6v655h83v-765h-123l-247 561q-7 16 -15.5 39t-10.5 27 q-7 23 -8 28h-5v-655h-83v765z" unicode="Ñ"/>
<glyph glyph-name="Ograve" d="M361 827h-81l-105 133h135zM320 59q91 0 131.5 75t40.5 246q0 173 -41.5 247t-130.5 74q-88 0 -130 -76t-42 -245q0 -168 42 -244.5t130 -76.5zM49 380q0 396 272 396q131 0 200.5 -92.5t69.5 -303.5q0 -210 -71 -303t-201 -93q-132 0 -201 92.5t-69 303.5z" unicode="Ò"/>
<glyph glyph-name="Oacute" d="M335 960h135l-105 -133h-81zM320 59q91 0 131.5 75t40.5 246q0 173 -41.5 247t-130.5 74q-88 0 -130 -76t-42 -245q0 -168 42 -244.5t130 -76.5zM49 380q0 396 272 396q131 0 200.5 -92.5t69.5 -303.5q0 -210 -71 -303t-201 -93q-132 0 -201 92.5t-69 303.5z" unicode="Ó"/>
<glyph glyph-name="Ocircumflex" d="M474 827h-87l-67 66h-3l-67 -66h-84l97 133h114zM320 59q91 0 131.5 75t40.5 246q0 173 -41.5 247t-130.5 74q-88 0 -130 -76t-42 -245q0 -168 42 -244.5t130 -76.5zM49 380q0 396 272 396q131 0 200.5 -92.5t69.5 -303.5q0 -210 -71 -303t-201 -93q-132 0 -201 92.5 t-69 303.5z" unicode="Ô"/>
<glyph glyph-name="Otilde" d="M146 827q2 62 31.5 98.5t79.5 36.5q35 0 80 -26.5t62 -26.5q20 0 29 13.5t12 43.5h73q-2 -61 -31.5 -98t-80.5 -37q-35 0 -80 26.5t-59 26.5q-36 0 -42 -57h-74zM320 59q91 0 131.5 75t40.5 246q0 173 -41.5 247t-130.5 74q-88 0 -130 -76t-42 -245q0 -168 42 -244.5 t130 -76.5zM49 380q0 396 272 396q131 0 200.5 -92.5t69.5 -303.5q0 -210 -71 -303t-201 -93q-132 0 -201 92.5t-69 303.5z" unicode="Õ"/>
<glyph glyph-name="Odieresis" d="M148 956h130v-129h-130v129zM364 956h129v-129h-129v129zM320 59q91 0 131.5 75t40.5 246q0 173 -41.5 247t-130.5 74q-88 0 -130 -76t-42 -245q0 -168 42 -244.5t130 -76.5zM49 380q0 396 272 396q131 0 200.5 -92.5t69.5 -303.5q0 -210 -71 -303t-201 -93 q-132 0 -201 92.5t-69 303.5z" unicode="Ö"/>
<glyph glyph-name="multiply" d="M94 178l171 168l-169 169l56 56l169 -170l168 170l55 -55l-171 -168l170 -170l-56 -56l-169 171l-169 -170z" unicode="×"/>
<glyph glyph-name="Oslash" d="M591 380q0 -210 -71 -303t-201 -93q-116 0 -181 71l-53 -80h-73l88 134q-51 97 -51 271q0 396 272 396q109 0 176 -67l56 84h73l-90 -137q55 -99 55 -276zM320 59q91 0 132.5 75.5t41.5 245.5q0 116 -18 187l-287 -435q40 -73 131 -73zM320 701q-89 0 -131.5 -76 t-42.5 -245q0 -112 16 -177l287 433q-39 65 -129 65z" unicode="Ø"/>
<glyph glyph-name="Ugrave" d="M369 827h-81l-105 133h135zM69 765h93v-509q0 -195 159 -195q158 0 158 195v509h91v-510q0 -138 -66.5 -204t-183.5 -66q-251 0 -251 270v510z" unicode="Ù"/>
<glyph glyph-name="Uacute" d="M338 960h135l-105 -133h-81zM69 765h93v-509q0 -195 159 -195q158 0 158 195v509h91v-510q0 -138 -66.5 -204t-183.5 -66q-251 0 -251 270v510z" unicode="Ú"/>
<glyph glyph-name="Ucircumflex" d="M477 827h-87l-67 66h-3l-67 -66h-84l97 133h114zM69 765h93v-509q0 -195 159 -195q158 0 158 195v509h91v-510q0 -138 -66.5 -204t-183.5 -66q-251 0 -251 270v510z" unicode="Û"/>
<glyph glyph-name="Udieresis" d="M151 956h130v-129h-130v129zM367 956h129v-129h-129v129zM69 765h93v-509q0 -195 159 -195q158 0 158 195v509h91v-510q0 -138 -66.5 -204t-183.5 -66q-251 0 -251 270v510z" unicode="Ü"/>
<glyph glyph-name="Yacute" d="M339 960h135l-105 -133h-81zM274 326l-237 439h103l183 -353h2l184 353h94l-237 -436v-329h-92v326z" unicode="Ý"/>
<glyph glyph-name="Thorn" d="M197 172v-172h-93v765h93v-160h134q110 0 173 -53.5t63 -161.5q0 -109 -64 -163.5t-180 -54.5h-126zM328 249q77 2 110.5 35.5t33.5 105.5q0 76 -34.5 107t-113.5 31h-127v-279h124h7z" unicode="Þ"/>
<glyph glyph-name="germandbls" d="M110 565q0 110 59 165t153 55q97 0 155.5 -50.5t58.5 -141.5q0 -63 -29 -107t-83 -63v-2q68 -13 109.5 -61.5t41.5 -134.5q0 -107 -67 -166t-183 -59h-37v77h39q73 0 115 36.5t42 111.5q0 70 -41 111t-116 41h-22v77h20q57 0 88.5 34.5t31.5 97.5q0 61 -33.5 93t-89.5 32 q-55 0 -88.5 -36t-33.5 -115v-560h-90v565z" unicode="ß"/>
<glyph glyph-name="agrave" d="M287 609l-118 179h135l60 -179h-77zM427 95q-48 -104 -169 -104q-80 0 -125.5 41t-45.5 112q0 91 79 130q73 38 260 44v27q0 66 -28.5 95.5t-86.5 29.5t-84.5 -27t-29.5 -63h-87q4 70 56 115t145 45q95 0 148 -47t53 -146v-234q0 -24 8.5 -32t32.5 -8h18v-73h-28 q-58 0 -82.5 22t-27.5 73h-6zM177 149q0 -41 25.5 -63t71.5 -22q60 0 106 42.5t46 132.5v12q-176 -8 -220 -39q-29 -23 -29 -63z" unicode="à"/>
<glyph glyph-name="aacute" d="M331 788h135l-118 -179h-77zM427 95q-48 -104 -169 -104q-80 0 -125.5 41t-45.5 112q0 91 79 130q73 38 260 44v27q0 66 -28.5 95.5t-86.5 29.5t-84.5 -27t-29.5 -63h-87q4 70 56 115t145 45q95 0 148 -47t53 -146v-234q0 -24 8.5 -32t32.5 -8h18v-73h-28q-58 0 -82.5 22 t-27.5 73h-6zM177 149q0 -41 25.5 -63t71.5 -22q60 0 106 42.5t46 132.5v12q-176 -8 -220 -39q-29 -23 -29 -63z" unicode="á"/>
<glyph glyph-name="acircumflex" d="M483 609h-84l-74 104h-1l-74 -104h-75l102 179h104zM427 95q-48 -104 -169 -104q-80 0 -125.5 41t-45.5 112q0 91 79 130q73 38 260 44v27q0 66 -28.5 95.5t-86.5 29.5t-84.5 -27t-29.5 -63h-87q4 70 56 115t145 45q95 0 148 -47t53 -146v-234q0 -24 8.5 -32t32.5 -8h18 v-73h-28q-58 0 -82.5 22t-27.5 73h-6zM177 149q0 -41 25.5 -63t71.5 -22q60 0 106 42.5t46 132.5v12q-176 -8 -220 -39q-29 -23 -29 -63z" unicode="â"/>
<glyph glyph-name="atilde" d="M139 619q2 65 31 103t79 38q34 0 77.5 -28t60.5 -28q36 0 42 61h73q-2 -64 -31 -102.5t-80 -38.5q-33 0 -77 28t-58 28q-37 0 -43 -61h-74zM427 95q-48 -104 -169 -104q-80 0 -125.5 41t-45.5 112q0 91 79 130q73 38 260 44v27q0 66 -28.5 95.5t-86.5 29.5t-84.5 -27 t-29.5 -63h-87q4 70 56 115t145 45q95 0 148 -47t53 -146v-234q0 -24 8.5 -32t32.5 -8h18v-73h-28q-58 0 -82.5 22t-27.5 73h-6zM177 149q0 -41 25.5 -63t71.5 -22q60 0 106 42.5t46 132.5v12q-176 -8 -220 -39q-29 -23 -29 -63z" unicode="ã"/>
<glyph glyph-name="adieresis" d="M362 626v129h129v-129h-129zM146 755h130v-129h-130v129zM427 95q-48 -104 -169 -104q-80 0 -125.5 41t-45.5 112q0 91 79 130q73 38 260 44v27q0 66 -28.5 95.5t-86.5 29.5t-84.5 -27t-29.5 -63h-87q4 70 56 115t145 45q95 0 148 -47t53 -146v-234q0 -24 8.5 -32 t32.5 -8h18v-73h-28q-58 0 -82.5 22t-27.5 73h-6zM177 149q0 -41 25.5 -63t71.5 -22q60 0 106 42.5t46 132.5v12q-176 -8 -220 -39q-29 -23 -29 -63z" unicode="ä"/>
<glyph glyph-name="aring" d="M320 636q31 0 49.5 20.5t18.5 52.5q0 31 -19 52.5t-49 21.5t-48.5 -21.5t-18.5 -52.5q0 -32 18.5 -52.5t48.5 -20.5zM191 709q0 55 36.5 91.5t92.5 36.5q57 0 93.5 -36.5t36.5 -91.5t-36.5 -91t-93.5 -36t-93 36t-36 91zM427 95q-48 -104 -169 -104q-80 0 -125.5 41 t-45.5 112q0 91 79 130q73 38 260 44v27q0 66 -28.5 95.5t-86.5 29.5t-84.5 -27t-29.5 -63h-87q4 70 56 115t145 45q95 0 148 -47t53 -146v-234q0 -24 8.5 -32t32.5 -8h18v-73h-28q-58 0 -82.5 22t-27.5 73h-6zM177 149q0 -41 25.5 -63t71.5 -22q60 0 106 42.5t46 132.5v12 q-176 -8 -220 -39q-29 -23 -29 -63z" unicode="å"/>
<glyph glyph-name="ae" d="M603 138q-8 -72 -48.5 -110.5t-109.5 -38.5q-109 0 -142 100h-3q-21 -46 -54 -72.5t-90 -26.5q-65 0 -103.5 41.5t-38.5 115.5q0 93 70 135q30 18 66.5 24t114.5 6v55q0 102 -78 102q-74 0 -80 -86h-78q2 68 42 112.5t117 44.5q93 0 127 -80h4q36 80 132 80 q82 0 120 -58.5t38 -153.5v-83h-259q0 -95 19.5 -140t74.5 -45q66 0 78 78h81zM174 60q91 0 91 151v35q-7 0 -18.5 0.5t-16.5 0.5q-77 0 -101 -24q-26 -24 -26 -71q0 -92 71 -92zM523 318q0 76 -17 113t-68 37q-48 0 -68 -40t-21 -117h174v7z" unicode="æ"/>
<glyph glyph-name="ccedilla" d="M330 -217q-90 0 -103 71h77q8 -17 31 -17q36 0 36 35t-35 35q-18 0 -31 -15h-71l45 99q-187 31 -189 271q0 128 65 203t182 75q87 0 146.5 -42t73.5 -130h-93q-7 40 -41.5 70.5t-90.5 30.5q-75 0 -111.5 -53.5t-36.5 -149.5q0 -101 34 -154t114 -53q62 0 95.5 35t41.5 78 h91q-12 -86 -74.5 -135.5t-153.5 -49.5h-3l-13 -28h32q93 0 93 -84q0 -40 -29.5 -66t-81.5 -26z" unicode="ç"/>
<glyph glyph-name="egrave" d="M295 609l-118 179h135l60 -179h-77zM548 138q-15 -70 -72.5 -110.5t-144.5 -40.5q-121 0 -184.5 75.5t-63.5 198.5q0 121 65 200t180 79t172 -73t57 -182v-46h-383q4 -85 43.5 -133.5t116.5 -48.5q102 0 128 81h86zM465 317q-5 154 -138 154q-66 0 -104 -42.5t-47 -117.5 h289v6z" unicode="è"/>
<glyph glyph-name="eacute" d="M343 788h135l-118 -179h-77zM548 138q-15 -70 -72.5 -110.5t-144.5 -40.5q-121 0 -184.5 75.5t-63.5 198.5q0 121 65 200t180 79t172 -73t57 -182v-46h-383q4 -85 43.5 -133.5t116.5 -48.5q102 0 128 81h86zM465 317q-5 154 -138 154q-66 0 -104 -42.5t-47 -117.5h289v6z " unicode="é"/>
<glyph glyph-name="ecircumflex" d="M489 609h-84l-74 104h-1l-74 -104h-75l102 179h104zM548 138q-15 -70 -72.5 -110.5t-144.5 -40.5q-121 0 -184.5 75.5t-63.5 198.5q0 121 65 200t180 79t172 -73t57 -182v-46h-383q4 -85 43.5 -133.5t116.5 -48.5q102 0 128 81h86zM465 317q-5 154 -138 154 q-66 0 -104 -42.5t-47 -117.5h289v6z" unicode="ê"/>
<glyph glyph-name="edieresis" d="M375 626v129h129v-129h-129zM159 755h130v-129h-130v129zM548 138q-15 -70 -72.5 -110.5t-144.5 -40.5q-121 0 -184.5 75.5t-63.5 198.5q0 121 65 200t180 79t172 -73t57 -182v-46h-383q4 -85 43.5 -133.5t116.5 -48.5q102 0 128 81h86zM465 317q-5 154 -138 154 q-66 0 -104 -42.5t-47 -117.5h289v6z" unicode="ë"/>
<glyph glyph-name="igrave" d="M285 609l-118 179h135l60 -179h-77zM92 0v75h194v380h-165v72h251v-452h197v-75h-477z" unicode="ì"/>
<glyph glyph-name="iacute" d="M347 788h135l-118 -179h-77zM92 0v75h194v380h-165v72h251v-452h197v-75h-477z" unicode="í"/>
<glyph glyph-name="icircumflex" d="M472 609h-84l-74 104h-1l-74 -104h-75l102 179h104zM92 0v75h194v380h-165v72h251v-452h197v-75h-477z" unicode="î"/>
<glyph glyph-name="idieresis" d="M359 626v129h129v-129h-129zM143 755h130v-129h-130v129zM92 0v75h194v380h-165v72h251v-452h197v-75h-477z" unicode="ï"/>
<glyph glyph-name="eth" d="M323 471q-77 0 -116 -54t-39 -153q0 -207 154 -207q151 0 151 207q0 107 -35 157t-115 50zM319 -13q-117 0 -181 75t-64 202q0 122 65.5 198.5t167.5 76.5q75 0 122 -47h5q-34 72 -111 145l-154 -57l-21 60l122 45q-70 54 -106 78l77 29q65 -37 110 -77l127 47l22 -59 l-98 -36q164 -170 164 -388q0 -143 -63.5 -217.5t-183.5 -74.5z" unicode="ð"/>
<glyph glyph-name="ntilde" d="M146 619q2 65 31 103t79 38q34 0 77.5 -28t60.5 -28q36 0 42 61h73q-2 -64 -31 -102.5t-80 -38.5q-33 0 -77 28t-58 28q-37 0 -43 -61h-74zM444 325v11q0 70 -18 94q-27 35 -83 35q-71 0 -106.5 -40.5t-35.5 -108.5v-316h-91v527h85v-89h2q19 43 65 72.5t105 29.5 q168 0 168 -173v-367h-91v325z" unicode="ñ"/>
<glyph glyph-name="ograve" d="M282 609l-118 179h135l60 -179h-77zM320 470q-153 0 -153 -206q0 -207 153 -207t153 207q0 206 -153 206zM320 -13q-120 0 -183 72.5t-63 204.5t63.5 204t182.5 72q120 0 183 -72t63 -204q0 -133 -63.5 -205t-182.5 -72z" unicode="ò"/>
<glyph glyph-name="oacute" d="M320 470q-153 0 -153 -206q0 -207 153 -207t153 207q0 206 -153 206zM320 -13q-120 0 -183 72.5t-63 204.5t63.5 204t182.5 72q120 0 183 -72t63 -204q0 -133 -63.5 -205t-182.5 -72zM333 788h135l-118 -179h-77z" unicode="ó"/>
<glyph glyph-name="ocircumflex" d="M478 609h-84l-74 104h-1l-74 -104h-75l102 179h104zM320 470q-153 0 -153 -206q0 -207 153 -207t153 207q0 206 -153 206zM320 -13q-120 0 -183 72.5t-63 204.5t63.5 204t182.5 72q120 0 183 -72t63 -204q0 -133 -63.5 -205t-182.5 -72z" unicode="ô"/>
<glyph glyph-name="otilde" d="M147 619q2 65 31 103t79 38q34 0 77.5 -28t60.5 -28q36 0 42 61h73q-2 -64 -31 -102.5t-80 -38.5q-33 0 -77 28t-58 28q-37 0 -43 -61h-74zM320 470q-153 0 -153 -206q0 -207 153 -207t153 207q0 206 -153 206zM320 -13q-120 0 -183 72.5t-63 204.5t63.5 204t182.5 72 q120 0 183 -72t63 -204q0 -133 -63.5 -205t-182.5 -72z" unicode="õ"/>
<glyph glyph-name="odieresis" d="M364 626v129h129v-129h-129zM148 755h130v-129h-130v129zM320 470q-153 0 -153 -206q0 -207 153 -207t153 207q0 206 -153 206zM320 -13q-120 0 -183 72.5t-63 204.5t63.5 204t182.5 72q120 0 183 -72t63 -204q0 -133 -63.5 -205t-182.5 -72z" unicode="ö"/>
<glyph glyph-name="divide" d="M253 101v134h134v-134h-134zM90 396h460v-77h-460v77zM253 612h134v-134h-134v134z" unicode="÷"/>
<glyph glyph-name="oslash" d="M565 264q0 -125 -66.5 -201t-180.5 -76q-87 0 -148 44l-47 -58h-77l81 100q-54 72 -54 191q0 124 66.5 200t180.5 76q88 0 149 -44l43 54h79l-79 -97q53 -74 53 -189zM321 57q150 0 150 207q0 76 -15 120l-239 -295q35 -32 104 -32zM319 471q-76 0 -114 -54t-38 -153 q0 -79 16 -122l239 297q-35 32 -103 32z" unicode="ø"/>
<glyph glyph-name="ugrave" d="M287 609l-118 179h135l60 -179h-77zM197 203q0 -82 19 -107q26 -35 81 -35q144 0 144 181v285h90v-527h-86v90h-2q-19 -44 -63 -73.5t-103 -29.5q-169 0 -169 173v367h89v-324z" unicode="ù"/>
<glyph glyph-name="uacute" d="M340 788h135l-118 -179h-77zM197 203q0 -82 19 -107q26 -35 81 -35q144 0 144 181v285h90v-527h-86v90h-2q-19 -44 -63 -73.5t-103 -29.5q-169 0 -169 173v367h89v-324z" unicode="ú"/>
<glyph glyph-name="ucircumflex" d="M480 609h-84l-74 104h-1l-74 -104h-75l102 179h104zM197 203q0 -82 19 -107q26 -35 81 -35q144 0 144 181v285h90v-527h-86v90h-2q-19 -44 -63 -73.5t-103 -29.5q-169 0 -169 173v367h89v-324z" unicode="û"/>
<glyph glyph-name="udieresis" d="M366 626v129h129v-129h-129zM150 755h130v-129h-130v129zM197 203q0 -82 19 -107q26 -35 81 -35q144 0 144 181v285h90v-527h-86v90h-2q-19 -44 -63 -73.5t-103 -29.5q-169 0 -169 173v367h89v-324z" unicode="ü"/>
<glyph glyph-name="yacute" d="M350 788h135l-118 -179h-77zM74 527h96l132 -340q14 -37 21 -60q3 -8 7 -22h4q4 14 7 23q13 39 22 61l124 338h91l-217 -560q-36 -93 -78.5 -129.5t-115.5 -36.5q-46 0 -83 11v75q42 -10 78 -10q45 0 67 19t44 76l11 28z" unicode="ý"/>
<glyph glyph-name="thorn" d="M95 788h89v-348h2q23 44 69 72t104 28q97 0 160 -64.5t63 -204.5q0 -138 -65 -211t-164 -73q-57 0 -104.5 27t-61.5 63h-3v-265h-89v976zM181 244q0 -81 42 -133.5t118 -52.5q150 0 150 213q0 197 -151 197q-72 0 -115.5 -49t-43.5 -119v-56z" unicode="þ"/>
<glyph glyph-name="OE" d="M316 0q-297 0 -297 381q0 384 297 384h312v-81h-222v-258h190v-79h-190v-266h227v-81h-317zM316 687q-102 0 -151.5 -73.5t-49.5 -233.5q0 -161 49 -231.5t152 -70.5v609z" unicode="Œ"/>
<glyph glyph-name="oe" d="M307 78q-12 -41 -43 -66t-79 -25q-83 0 -124 66.5t-41 210.5q0 276 172 276q97 0 130 -83h3q37 83 133 83q158 0 158 -221v-74l-259 -1q0 -92 20 -138t73 -46q67 0 79 78h81q-8 -72 -48.5 -110.5t-108.5 -38.5q-100 0 -140 89h-6zM530 318q0 76 -17 113t-68 37 q-48 0 -67.5 -38.5t-21.5 -118.5h174v7zM196 57q46 0 62.5 48t16.5 159q0 110 -16.5 158.5t-62.5 48.5t-67 -48.5t-21 -158.5q0 -112 20 -159.5t68 -47.5z" unicode="œ"/>
<glyph glyph-name="Scaron" d="M173 960h87l67 -66h3l67 66h84l-97 -133h-114zM483 560q-7 61 -47 100.5t-115 39.5q-76 0 -115.5 -37t-39.5 -92q0 -57 28 -85t87 -41l117 -26q102 -23 147 -73t45 -137q0 -105 -68.5 -165t-197.5 -60q-124 0 -195 63.5t-77 167.5h94q9 -69 52.5 -112.5t127.5 -43.5 q89 0 129 39t40 101q0 108 -125 135l-107 23q-100 22 -144.5 70t-44.5 138q0 93 68.5 152t179.5 59q119 0 182.5 -58.5t72.5 -157.5h-94z" unicode="Š"/>
<glyph glyph-name="scaron" d="M173 788h82l74 -104h1l74 104h77l-102 -179h-104zM440 395q-12 75 -120 75q-53 0 -82 -21t-29 -58q0 -34 21.5 -51.5t68.5 -26.5l77 -13q86 -15 124 -50t38 -98q0 -78 -54.5 -121.5t-166.5 -43.5q-198 0 -216 162h87q13 -92 129 -92q133 0 133 86q0 36 -22 52.5t-80 26.5 l-87 15q-138 22 -138 148q0 68 51.5 111.5t146.5 43.5q98 0 149 -38.5t57 -106.5h-87z" unicode="š"/>
<glyph glyph-name="Ydieresis" d="M152 956h130v-129h-130v129zM368 956h129v-129h-129v129zM274 326l-237 439h103l183 -353h2l184 353h94l-237 -436v-329h-92v326z" unicode="Ÿ"/>
<glyph glyph-name="circumflex" d="M474 609h-84l-74 104h-1l-74 -104h-75l102 179h104z" unicode="ˆ"/>
<glyph glyph-name="tilde" d="M140 619q2 65 31 103t79 38q34 0 77.5 -28t60.5 -28q36 0 42 61h73q-2 -64 -31 -102.5t-80 -38.5q-33 0 -77 28t-58 28q-37 0 -43 -61h-74z" unicode="˜"/>
<glyph glyph-name="uni2009" horiz-adv-x="0" unicode=" "/>
<glyph glyph-name="endash" d="M140 366h360v-77h-360v77z" unicode="–"/>
<glyph glyph-name="emdash" d="M10 366h620v-77h-620v77z" unicode="—"/>
<glyph glyph-name="quoteleft" d="M335 765h79l-54 -261h-144z" unicode="‘"/>
<glyph glyph-name="quotesinglbase" d="M226 -127l54 261h144l-119 -261h-79z" unicode="‚"/>
<glyph glyph-name="quotedblleft" d="M231 765h79l-54 -261h-144zM430 765h79l-54 -261h-144z" unicode="“"/>
<glyph glyph-name="quotedblright" d="M191 504h-79l54 261h144zM390 504h-79l54 261h144z" unicode="”"/>
<glyph glyph-name="dagger" d="M362 -80h-83v522h-198v76h198v247h83v-247h198v-76h-198v-522z" unicode="†"/>
<glyph glyph-name="daggerdbl" d="M362 -80h-83v252h-198v76h198v204h-198v76h198v237h83v-237h198v-76h-198v-204h198v-76h-198v-252z" unicode="‡"/>
<glyph glyph-name="ellipsis" d="M38 134h134v-134h-134v134zM468 134h134v-134h-134v134zM253 134h134v-134h-134v134z" unicode="…"/>
<glyph glyph-name="perthousand" d="M243 50q53 0 53 105q0 104 -53 104q-51 0 -51 -104q0 -105 51 -105zM512 50q53 2 53 105q0 104 -53 104q-51 0 -51 -104q0 -105 51 -105zM242 -7q-53 0 -83 41.5t-30 120.5t31 120t84 41q55 0 85.5 -40.5t30.5 -120.5q0 -81 -31 -121.5t-87 -40.5zM512 -7 q-53 0 -83.5 40.5t-30.5 121.5q0 79 31 120t84 41q55 0 85.5 -40.5t30.5 -120.5q0 -79 -31 -120.5t-86 -41.5zM20 324l470 265v-69l-470 -265v69zM135 506q53 0 53 105q0 104 -53 104q-51 0 -51 -104q0 -105 51 -105zM21 611q0 79 31 120t84 41q55 0 85.5 -40.5t30.5 -120.5 t-31.5 -121t-86.5 -41q-53 0 -83 41.5t-30 120.5z" unicode="‰"/>
<glyph glyph-name="uni2032" d="M272 765h119l-76 -297h-72z" unicode="′"/>
<glyph glyph-name="uni2033" d="M182 765h119l-76 -297h-72zM362 765h119l-76 -297h-72z" unicode="″"/>
<glyph glyph-name="guilsinglleft" d="M277 262l186 -205h-109l-194 203l194 204h109z" unicode="‹"/>
<glyph glyph-name="guilsinglright" d="M363 259l-186 205h109l194 -203l-194 -204h-109z" unicode="›"/>
<glyph glyph-name="fraction" d="M563 780h82l-568 -820h-82z" unicode="⁄"/>
<glyph glyph-name="Euro" d="M595 207q-12 -103 -72 -163t-157 -60q-214 0 -249 267h-98v71h92q-1 15 -1 46q0 30 1 45h-94v71h100q37 268 249 268q86 0 149.5 -58.5t72.5 -165.5h-88q-7 63 -40.5 106.5t-93.5 43.5q-132 0 -158 -194h220v-71h-226q-1 -15 -1 -45q0 -31 1 -46h228v-71h-222 q28 -192 159 -192q63 0 98 40t44 108h86z" unicode="€"/>
<glyph glyph-name="trademark" d="M284 765h83l59 -203q2 -7 4 -19.5t4 -17.5q0 -3 1 -8t1 -7h3q0 5 2 15q2 5 4.5 17.5t4.5 19.5l60 203h82v-326h-56v255h-4q-3 -17 -4 -19q-2 -6 -6.5 -22.5t-6.5 -25.5l-56 -188h-47l-57 187q-3 8 -5.5 17.5t-4 18.5t-2.5 13q-2 14 -3 19h-4v-255h-52v326zM239 716h-80 v-277h-56v277h-80v49h216v-49z" unicode="™"/>
<glyph glyph-name="minus" d="M90 397h460v-79h-460v79z" unicode="−"/>
<glyph glyph-name="approxequal" d="M211 271q-19 0 -32.5 -15t-15.5 -46h-73q0 63 33.5 99t88.5 36q37 0 120.5 -29.5t96.5 -29.5q19 0 32.5 15.5t15.5 46.5h73q0 -63 -32.5 -99t-87.5 -36q-37 0 -119.5 29t-99.5 29zM90 390q0 63 33.5 99t88.5 36q37 0 120.5 -29.5t96.5 -29.5q19 0 32.5 15.5t15.5 46.5h73 q0 -63 -33 -99t-88 -36q-36 0 -118.5 29t-99.5 29q-19 0 -32.5 -15t-15.5 -46h-73z" unicode="≈"/>
<glyph glyph-name="notequal" d="M236 109h-81l60 120h-125v76h163l53 105h-216v76h254l60 120h81l-60 -120h125v-76h-163l-53 -105h216v-76h-254z" unicode="≠"/>
<glyph glyph-name="lessequal" d="M83 0v77h468v-77h-468zM83 328v70l468 196v-87l-353 -144l353 -144v-87z" unicode="≤"/>
<glyph glyph-name="greaterequal" d="M88 0v77h468v-77h-468zM556 398v-70l-468 -196v87l353 144l-353 144v87z" unicode="≥"/>
</font>
</defs>
</svg>
